<svg clip-rule="evenodd" fill-rule="evenodd" stroke-linejoin="round" stroke-miterlimit="2" viewBox="0 0 24 24" xmlns="http://www.w3.org/2000/svg"><path d="m12.002 2.005c5.518 0 9.998 4.48 9.998 9.997 0 5.518-4.48 9.998-9.998 9.998-5.517 0-9.997-4.48-9.997-9.998 0-5.517 4.48-9.997 9.997-9.997zm4.998 13.245c0-.414-.336-.75-.75-.75h-8.5c-.414 0-.75.336-.75.75s.336.75.75.75h8.5c.414 0 .75-.336.75-.75zm0-3.248c0-.414-.336-.75-.75-.75h-8.5c-.414 0-.75.336-.75.75s.336.75.75.75h8.5c.414 0 .75-.336.75-.75zm0-3.252c0-.414-.336-.75-.75-.75h-8.5c-.414 0-.75.336-.75.75s.336.75.75.75h8.5c.414 0 .75-.336.75-.75z" fill-rule="nonzero"/></svg>