<svg xmlns="http://www.w3.org/2000/svg" version="1.1" xmlns:xlink="http://www.w3.org/1999/xlink" xmlns:svgjs="http://svgjs.dev/svgjs" width="385" height="401"><svg id="SvgjsSvg1005" xmlns="http://www.w3.org/2000/svg" version="1.1" viewBox="0 0 385 401">
  <!-- Generator: Adobe Illustrator 29.0.1, SVG Export Plug-In . SVG Version: 2.1.0 Build 192)  -->
  <defs>
    <style>
      .st0, .st1 {
        fill: #fff;
      }

      .st0, .st2 {
        fill-rule: evenodd;
      }

      .st3 {
        fill: none;
        stroke: #000;
        stroke-linecap: round;
        stroke-linejoin: round;
        stroke-width: 1px;
      }

      .st2 {
        fill: #006b54;
      }
    </style>
  </defs>
  <g>
    <g>
      <path class="st0" d="M2,261.5C2,139.7,82.1,36.7,192.5,2.1c110.4,34.6,190.5,137.6,190.5,259.4v63.1c0,29.8-21.1,54.6-49.2,60.3h-.2s-.2,0-.2,0h-.2c-45.6,9.1-92.6,13.9-140.7,13.9s-95.1-4.8-140.7-13.9h-.2s-.2,0-.2,0h-.2c-28.1-5.7-49.2-30.6-49.2-60.3s0,58.6,0-63.1Z"></path>
      <path class="st3" d="M2,261.5C2,139.7,82.1,36.7,192.5,2.1c110.4,34.6,190.5,137.6,190.5,259.4v63.1c0,29.8-21.1,54.6-49.2,60.3h-.2s-.2,0-.2,0h-.2c-45.6,9.1-92.6,13.9-140.7,13.9s-95.1-4.8-140.7-13.9h-.2s-.2,0-.2,0h-.2c-28.1-5.7-49.2-30.6-49.2-60.3s0,58.6,0-63.1Z"></path>
    </g>
    <path class="st2" d="M192.5,14.6c103.7,34.1,178.6,131.8,178.6,246.9v63.1c0,24-17,44-39.7,48.6-44.8,8.9-91.6,13.7-138.9,13.7s-93.6-4.7-138.4-13.6c-22.6-4.6-40.2-24.7-40.2-48.7v-63.1C13.9,146.4,88.8,48.8,192.5,14.6Z"></path>
    <g>
      <path class="st0" d="M81.7,146.2c-.1,1.2-.4,2.3-.9,3.4-.5,1.1-1.1,2.1-1.8,3-.7.9-1.6,1.7-2.6,2.5-1,.7-2,1.3-3.2,1.8-1.9.8-3.7,1.1-5.5,1-1.8-.1-3.4-.6-5-1.5-1.6-.9-3-2.1-4.3-3.7-1.3-1.6-2.4-3.5-3.3-5.7-.9-2.2-1.4-4.4-1.6-6.4s0-3.9.5-5.6c.5-1.7,1.4-3.2,2.6-4.5,1.2-1.3,2.7-2.3,4.6-3.1,2.3-.9,4.6-1.2,7-.9,2.4.3,4.6,1.2,6.5,2.8l-3.5,4.2c-.6-.4-1.1-.7-1.5-.9-.4-.2-.8-.3-1.3-.4-.7-.2-1.6-.3-2.5-.2-.9,0-1.8.3-2.6.6-1.3.5-2.3,1.3-2.9,2.2-.6.9-1,2-1.2,3.1s-.1,2.3,0,3.5c.2,1.2.6,2.4,1,3.5,1.3,3.1,2.8,5.3,4.7,6.5,1.9,1.2,3.9,1.4,6.1.5.7-.3,1.2-.6,1.7-.9.5-.3.9-.7,1.3-1.2.4-.5.7-1,1.1-1.7.3-.7.7-1.5,1-2.4l5.5.6Z"></path>
      <path class="st0" d="M112.3,142.9l-5-6-12.8,3.9-.7,7.8-5.8,1.8,3.4-33.1,5.3-1.6,21.2,25.6-5.6,1.7ZM96.3,123.7l-1.1,11.1,8.2-2.5-7.1-8.6Z"></path>
      <polygon class="st0" points="123.2 140.5 117.4 110.4 122.7 109.4 127.7 134.8 144.8 131.5 145.7 136.1 123.2 140.5"></polygon>
      <rect class="st1" x="149" y="104.8" width="5.5" height="30.6" transform="translate(-13.5 19.4) rotate(-7)"></rect>
      <polygon class="st0" points="168.1 108.7 168.5 114.9 178 114.2 178.4 119.8 168.9 120.5 169.8 133.8 164.2 134.2 162.1 103.6 185 102 185.3 107.5 168.1 108.7"></polygon>
      <path class="st0" d="M217.6,118.2c0,2.4-.5,4.6-1.1,6.5-.7,1.9-1.6,3.6-2.7,5s-2.5,2.4-4.1,3.1c-1.6.7-3.4,1-5.3,1-2.3,0-4.2-.6-5.8-1.6-1.6-1-2.9-2.3-3.9-3.8s-1.7-3.3-2.2-5.2c-.4-1.9-.6-3.8-.6-5.8,0-2.4.5-4.6,1.1-6.6.7-1.9,1.6-3.6,2.8-4.9,1.2-1.3,2.6-2.3,4.2-3,1.6-.7,3.4-1,5.5-.9,1.9,0,3.6.5,5.1,1.3,1.5.8,2.8,1.9,3.9,3.3,1.1,1.4,1.9,3.1,2.4,5.1.5,2,.8,4.1.7,6.4ZM212.1,118.1c.1-3.2-.4-5.8-1.6-7.7-1.2-1.9-2.9-2.8-5.3-2.9s-4.2.8-5.5,2.6c-1.4,1.8-2.1,4.3-2.2,7.5-.1,3.3.5,5.9,1.7,7.7,1.2,1.9,3,2.9,5.3,2.9,1.5,0,2.7-.2,3.6-.8,1-.6,1.7-1.4,2.3-2.4.6-1,1-2.1,1.2-3.3.3-1.2.4-2.4.4-3.6Z"></path>
      <path class="st0" d="M242.6,137l-3.2-12.6-8.1-1.1-1.7,11.9-5.4-.8,4.3-30.3,14,2c1.1.2,2.1.4,2.8.7s1.5.7,2.2,1.3c1.3,1,2.3,2.3,3,3.8.6,1.5.8,3.2.6,4.9-.2,1.7-.9,3.2-2,4.5-1.1,1.3-2.4,2.2-4.1,2.9l3.7,13.8-6.1-.9ZM245.6,115.9c.2-1.2,0-2.2-.8-3-.7-.8-1.7-1.3-3.1-1.5l-8.6-1.2-1.1,7.6,8.6,1.2c1.4.2,2.5,0,3.4-.6s1.4-1.4,1.6-2.5Z"></path>
      <polygon class="st0" points="274.2 143.7 265.1 119.7 260 140.2 254.8 138.9 262.2 109.2 267.4 110.5 276.2 133.5 281 113.9 286.2 115.1 278.8 144.9 274.2 143.7"></polygon>
      <rect class="st1" x="278.4" y="130.7" width="30.6" height="5.5" transform="translate(76.1 371.5) rotate(-72)"></rect>
      <path class="st0" d="M320.2,159.6v-7.8c0,0-12.5-5-12.5-5l-5.5,5.6-5.6-2.3,23.4-23.6,5.2,2.1.4,33.2-5.5-2.2ZM319.8,134.6l-7.9,8,8,3.2v-11.2Z"></path>
    </g>
  </g>
  <g>
    <path class="st0" d="M177.4,289.2c0,6.6-1.3,12.8-4,18.6-2.7,5.8-6.4,10.8-11.1,15-4.7,4.2-10.3,7.6-16.7,10-6.5,2.5-13.4,3.7-20.7,3.7s-14.3-1.3-20.7-3.8c-6.5-2.5-12-6-16.7-10.5-4.7-4.5-8.4-9.7-11.1-15.7-2.7-6-4-12.4-4-19.4,0-10.8,1.4-21.4,4.3-32,2.8-10.6,6.9-20.7,12.1-30.4,5.2-9.7,11.5-18.6,18.8-26.9s15.4-15.3,24.3-21.3l12.4,20.7c-4.8,3.7-9,7.3-12.6,10.7-3.6,3.5-6.9,7-9.9,10.7-3,3.7-5.7,7.6-8.2,11.6-2.5,4.1-4.8,8.6-7.1,13.5,4.5-.8,7.9-1.2,10.3-1.4,2.4-.2,5.1-.2,8.2-.2,7.1,0,13.8,1.2,20.2,3.7,6.4,2.5,12,5.8,16.8,10s8.6,9.2,11.4,15,4.1,11.9,4.1,18.3ZM153,288.8c0-2.9-.7-5.8-2.2-8.5-1.5-2.8-3.5-5.1-6-7.1s-5.5-3.6-9-4.8c-3.5-1.2-7.1-1.8-11-1.8s-7.4.6-10.7,1.8c-3.3,1.2-6.2,2.8-8.8,4.8-2.5,2-4.5,4.4-6,7.1-1.5,2.8-2.2,5.6-2.2,8.5s.7,6,2.2,8.8,3.5,5.2,6,7.3c2.5,2.1,5.5,3.7,8.8,5,3.3,1.2,6.9,1.8,10.7,1.8s7.5-.6,10.8-1.8,6.3-2.9,8.9-5c2.5-2.1,4.6-4.5,6.1-7.3s2.3-5.7,2.3-8.8Z"></path>
    <path class="st0" d="M207.6,333.7c.3-9.1,1.5-17.4,3.5-24.9s5.1-15,9.5-22.4c3.2-5.8,7.2-11.3,12-16.3s9.8-9.5,15.2-13.5c1.4-.8,2.6-1.6,3.7-2.4,1.1-.8,2.2-1.7,3.2-2.4l8.3-4.4,7.6-4.4,7.4-4.2c3.1-2,5.6-4.5,7.5-7.5,1.9-3,2.9-6.1,2.9-9.3s-.8-5.6-2.3-8.2c-1.5-2.5-3.6-4.7-6.1-6.6s-5.5-3.3-8.9-4.4c-3.4-1.1-7-1.6-10.8-1.6-7.8,0-14.2,1.8-19,5.5-4.8,3.7-7.9,9.1-9.1,16.1l-24.4-5.3c2.6-12.9,8.6-23,18-30.3,9.4-7.3,20.9-11,34.6-11s14.3,1.2,20.6,3.7c6.4,2.5,11.9,5.8,16.6,9.9,4.7,4.1,8.4,9,11.2,14.6,2.8,5.6,4.1,11.6,4.1,17.9s-1.3,11.9-4,17.6c-2.7,5.8-6.6,10.9-11.6,15.3-1.2.9-2.3,1.8-3.3,2.5-1,.8-2,1.4-3.1,1.8l-7.6,4.8-8.3,4.4-7.6,4.4c-3.7,2.2-7,4.4-9.8,6.8-2.8,2.4-5.5,5-7.8,7.7-2.4,2.8-4.6,5.8-6.7,9.2-2.1,3.4-4,7.2-5.9,11.5h75.8v24.9h-105.1Z"></path>
  </g>
</svg><style>@media (prefers-color-scheme: light) { :root { filter: none; } }
@media (prefers-color-scheme: dark) { :root { filter: none; } }
</style></svg>